<?xml version="1.0" standalone="no"?>
<!DOCTYPE svg PUBLIC "-//W3C//DTD SVG 20010904//EN"
 "http://www.w3.org/TR/2001/REC-SVG-20010904/DTD/svg10.dtd">
<svg version="1.0" xmlns="http://www.w3.org/2000/svg"
 width="16.000000pt" height="16.000000pt" viewBox="0 0 16.000000 16.000000"
 preserveAspectRatio="xMidYMid meet">

<g transform="translate(0.000000,16.000000) scale(0.100000,-0.100000)"
fill="#000000" stroke="none">
<path d="M43 148 c-55 -27 -50 -114 8 -138 89 -37 151 99 63 139 -30 13 -42
13 -71 -1z m41 -54 c-5 -44 -22 -76 -35 -68 -6 3 -6 10 -1 17 6 7 13 31 17 55
8 50 26 47 19 -4z m40 3 c-11 -65 -15 -77 -24 -77 -10 0 -8 28 5 87 9 42 26
33 19 -10z"/>
</g>
</svg>
